<svg xmlns="http://www.w3.org/2000/svg" width="41.003" height="48" viewBox="0 0 41.003 48">
  <path id="Shape" d="M24.449,48h0c-9.919-6.478-12.981-8.473-14.81-9.665l-.005,0h0C7.583,36.995,6.893,36.545,0,32.034l.185-.227A103.621,103.621,0,0,0,13.729,11.138c2.348,1.223,5.662,2.682,8.123,2.682a2.908,2.908,0,0,0,2.972-1.635,17.131,17.131,0,0,0,.895-3.369A15.5,15.5,0,0,1,27.568,3.3,7.32,7.32,0,0,1,33.7,0a7.227,7.227,0,0,1,3.838,1.088,7.391,7.391,0,0,1,2.576,2.758A7.169,7.169,0,0,1,39.8,11.29a14.335,14.335,0,0,1-4.19,3.795A18.978,18.978,0,0,0,32.9,17.19a2.663,2.663,0,0,0-.83,2.1,7.528,7.528,0,0,0,2.189,4.165,30.977,30.977,0,0,0,3.883,3.624A124.5,124.5,0,0,0,24.45,48ZM21.408,37v0a9.034,9.034,0,0,0-.845,3.746l2.408,1.526c1.646-2.927,3.8-6.371,6.078-9.7L12.4,21.654A110.424,110.424,0,0,1,5.871,31.11l2.611,1.63a7.761,7.761,0,0,0,4.676-3.49,7.678,7.678,0,0,1-1.723,5.376l6.728,4.462A7.448,7.448,0,0,1,21.406,37Zm-5.949-20.56-1.011,1.766,16.9,11.1c.4-.556.822-1.117,1.239-1.666-2.767-2.634-4.305-5.46-4.449-8.17a6.5,6.5,0,0,1,1.928-5.1,27.687,27.687,0,0,1,2.8-2.216,17.8,17.8,0,0,0,3.586-3.048,3.09,3.09,0,0,0,.222-3.28,3.632,3.632,0,0,0-3.109-1.87,3.154,3.154,0,0,0-2.663,1.526,16.867,16.867,0,0,0-1.293,4.251,26.532,26.532,0,0,1-1.126,4.038c-1.115,2.558-3.647,4.025-6.948,4.025A15.955,15.955,0,0,1,15.459,16.442Zm18.226-7.38a1.768,1.768,0,1,1,.973-3.248,1.77,1.77,0,0,1-.973,3.248Z" fill="#333"/>
</svg>
