<svg xmlns="http://www.w3.org/2000/svg" width="60" height="72" viewBox="0 0 60 72">
  <path id="Shape" d="M31.344,72H28.659a2.785,2.785,0,0,1-1.845-.654L23.25,69h13.5l-3.56,2.345A2.785,2.785,0,0,1,31.344,72ZM36,66H24a1.5,1.5,0,1,1,0-3H36a1.5,1.5,0,1,1,0,3Zm0-6H24a1.5,1.5,0,0,1,0-3H36a1.5,1.5,0,0,1,0,3Zm-8.394-6H21.642c0-3.974-2.134-7.682-4.394-11.608C14.668,37.909,12,33.273,12,27.6a17.674,17.674,0,0,1,1.546-7.418,15.973,15.973,0,0,1,4.076-5.429,17.86,17.86,0,0,1,5.763-3.335,19.8,19.8,0,0,1,13.219,0,17.89,17.89,0,0,1,5.769,3.336,15.983,15.983,0,0,1,4.08,5.429A17.648,17.648,0,0,1,48,27.6c0,5.67-2.668,10.306-5.248,14.789C40.492,46.318,38.358,50.025,38.358,54H32.391a20.254,20.254,0,0,1,1.621-7.728A56.957,56.957,0,0,1,37.554,39.4l.021-.037C39.851,35.4,42,31.656,42,27.6c0-7.775-6.225-11.316-12.01-11.316S18,19.828,18,27.6c0,4.056,2.152,7.8,4.43,11.768l.016.028c2.544,4.418,5.175,8.986,5.16,14.6ZM55.992,43.884h0l-7.274-2.945c.663-1.254,1.253-2.508,1.755-3.73l7.062,2.862-1.542,3.812ZM4.08,43.854h0L2.394,40.1l7.02-3.156a40.752,40.752,0,0,0,1.734,3.729l-7.068,3.18ZM60,29.646H52.386c.054-.612.113-1.325.113-2.043,0-.7-.049-1.38-.1-2.07H60v4.112Zm-52.386,0H0V25.53h7.6C7.55,26.221,7.5,26.9,7.5,27.6s.056,1.4.114,2.042ZM50.646,18.54h0a20.138,20.138,0,0,0-2.06-3.581l5.827-4.182,2.4,3.345-6.161,4.418Zm-41.295,0h0L3.189,14.124l2.4-3.344,5.826,4.179a20.146,20.146,0,0,0-2.061,3.581ZM43.17,9.756h0a23.282,23.282,0,0,0-3.614-1.964l3.114-5.8,3.624,1.944L43.171,9.755Zm-26.343,0h0l-3.12-5.819,3.624-1.944,3.11,5.8a23.351,23.351,0,0,0-3.613,1.965ZM32.169,5.892h0c-.771-.071-1.483-.105-2.177-.105-.62,0-1.271.028-1.935.084V0h4.113V5.891Z" fill="#333"/>
</svg>
