<svg xmlns="http://www.w3.org/2000/svg" width="48" height="36" viewBox="0 0 48 36">
  <path id="Shape" d="M38,36a8.793,8.793,0,0,1-5.116-1.5,16.688,16.688,0,0,1-3.241-3.165C28.076,29.495,26.6,27.754,24,27.754s-4.075,1.741-5.643,3.583A16.688,16.688,0,0,1,15.117,34.5,8.794,8.794,0,0,1,10,36,10.011,10.011,0,0,1,0,26c0-3.8,2.4-8.01,6.368-14.979.485-.852.987-1.732,1.515-2.665C9.3,5.854,11.1,4.638,13.39,4.638a15.8,15.8,0,0,1,5.786,1.63c.824.348,1.6.678,2.338.918a7.947,7.947,0,0,0,2.485.4,7.968,7.968,0,0,0,2.487-.4c.737-.241,1.517-.571,2.342-.92A15.782,15.782,0,0,1,34.61,4.638c2.289,0,4.09,1.217,5.508,3.721.526.93,1.027,1.81,1.513,2.662C45.6,17.989,48,22.2,48,26A10.011,10.011,0,0,1,38,36Zm0-16a6,6,0,1,0,6,6A6.007,6.007,0,0,0,38,20ZM10,20a6,6,0,1,0,6,6A6.007,6.007,0,0,0,10,20Zm14,3.752h0a9.132,9.132,0,0,1,4.086.95,9.983,9.983,0,0,1,11.88-8.509c-.477-.855-1.572-2.779-2.452-4.324l-.878-1.544c-.673-1.188-1.346-1.7-2.253-1.7a9,9,0,0,0-3.141.993c-.994.427-2.119.911-3.51,1.365a11.965,11.965,0,0,1-3.731.6,11.953,11.953,0,0,1-3.731-.6c-1.39-.454-2.515-.938-3.508-1.364a9.018,9.018,0,0,0-3.143-.993c-.906,0-1.58.508-2.253,1.7-.4.706-.887,1.561-1.4,2.467-.709,1.245-1.442,2.533-1.928,3.4A9.984,9.984,0,0,1,19.916,24.7,9.144,9.144,0,0,1,24,23.752Zm14.075,6.256a4.207,4.207,0,0,1-1.436-.262,5.675,5.675,0,0,0,3.487-2.157,5.477,5.477,0,0,0,.805-4.3,3.879,3.879,0,0,1,.729,4.291A3.958,3.958,0,0,1,38.073,30.008Zm-28,0a4.206,4.206,0,0,1-1.436-.262,5.675,5.675,0,0,0,3.487-2.157,5.477,5.477,0,0,0,.805-4.3,3.878,3.878,0,0,1,.729,4.29A3.958,3.958,0,0,1,10.07,30.008ZM24,22a2,2,0,1,1,2-2A2,2,0,0,1,24,22ZM26.192,5.164h0a3.949,3.949,0,0,1,.589-3.538,3.989,3.989,0,0,1,6.962,1,20.273,20.273,0,0,0-5.519,1.723c-.708.3-1.376.584-2.03.817Zm-4.384,0h0c-.654-.233-1.322-.516-2.029-.816a20.327,20.327,0,0,0-5.52-1.723,3.989,3.989,0,0,1,6.962-1,3.949,3.949,0,0,1,.589,3.538Z" fill="#333"/>
</svg>
