<svg xmlns="http://www.w3.org/2000/svg" width="48" height="48" viewBox="0 0 48 48">
  <path id="Shape" d="M0,48H0A26.024,26.024,0,0,1,3.817,35.738a19.122,19.122,0,0,1,9.463-8.044l1.609,1.612c-3.758,2.391-6.418,4.987-7.9,7.719a11.139,11.139,0,0,0-1.425,5.43c5.118-.06,9.679-3.063,13.556-8.928l1.592,1.6a18.823,18.823,0,0,1-8.06,9.123,25.86,25.86,0,0,1-5.992,2.619A28.479,28.479,0,0,1,0,48Zm24.782-3.15v0a12.026,12.026,0,0,0,2.086-3.758,6.862,6.862,0,0,0-.257-4.548c.987-.375,1.912-.759,2.828-1.175a8.1,8.1,0,0,1,.887,3.476,12.326,12.326,0,0,0,2.7-5.3c1.072-.6,2.167-1.279,3.256-2.021a14.187,14.187,0,0,1-4.046,9.724,12.1,12.1,0,0,1-7.453,3.61Zm-.417-11.73h0l-9.453-9.453A38.392,38.392,0,0,1,25.076,7.876,29.556,29.556,0,0,1,45.468,0c.789,0,1.606.028,2.428.084.069.9.1,1.813.1,2.7a29.841,29.841,0,0,1-2.166,11.372,29.438,29.438,0,0,1-5.58,8.719,36.336,36.336,0,0,1-7.615,6.258,43.256,43.256,0,0,1-8.272,3.987ZM43.974,4.034A25.287,25.287,0,0,0,27.06,11.491a35.306,35.306,0,0,0-7.484,11.183l5.766,5.766a37.984,37.984,0,0,0,7.291-4.105,29.914,29.914,0,0,0,5.792-5.47A24.976,24.976,0,0,0,43.974,4.034ZM3.174,23.242v0a12.114,12.114,0,0,1,3.608-7.453A14.183,14.183,0,0,1,16.51,11.74c-.823,1.187-1.5,2.255-2.077,3.266A12.439,12.439,0,0,0,9.18,17.7a8.1,8.1,0,0,1,3.464.882c-.42.931-.811,1.884-1.16,2.836A7.434,7.434,0,0,0,8.8,20.881c-1.253,0-2.9.28-5.625,2.359Zm26.361-2.75a2,2,0,1,1,1.413-.585A1.988,1.988,0,0,1,29.535,20.492Zm5.655-3.66A4,4,0,1,1,38.02,15.66,3.973,3.973,0,0,1,35.191,16.832Zm0-5.4a1.4,1.4,0,1,0,0,2.8,1.4,1.4,0,1,0,0-2.8Z" fill="#ddd"/>
</svg>
