<svg xmlns="http://www.w3.org/2000/svg" width="48" height="32" viewBox="0 0 48 32">
  <path id="Shape" d="M42,32H6A6,6,0,0,1,6,20H42a6,6,0,0,1,0,12ZM6,24a2,2,0,1,0,0,4H42a2,2,0,1,0,0-4Zm28-7.974L24.888,12.1a4.475,4.475,0,0,0-1.293-.34l-.9-.094L20.232,9.5,20.88,8l3.294.232.688.594a4.287,4.287,0,0,0,1.122.678l3.922,1.714L34,16.025ZM6,15.992H6v0L10.33,9.362A2,2,0,0,0,10.578,7.7a3.936,3.936,0,0,1,4.276-5l-1.938,2.96A3.083,3.083,0,0,0,15.5,7.578a1.11,1.11,0,0,0,.289-.036l1.939-2.96a3.934,3.934,0,0,1-2.87,5.92,1.993,1.993,0,0,0-1.422.89l-3.006,4.6Zm36,0H36.524L22.7,0h2.6A6.093,6.093,0,0,1,29.95,2.142L42,15.989ZM28.963,2.766a.466.466,0,0,0-.353.768L30.706,6a.464.464,0,0,0,.355.165.466.466,0,0,0,.356-.769l-2.1-2.466A.466.466,0,0,0,28.963,2.766Z" fill="#ddd"/>
</svg>
