<?xml version="1.0"?>
<svg xmlns="http://www.w3.org/2000/svg" xmlns:xlink="http://www.w3.org/1999/xlink" version="1.1" id="Capa_1" x="0px" y="0px" viewBox="0 0 512 512" style="enable-background:new 0 0 512 512;" xml:space="preserve" width="512px" height="512px" class=""><g><path style="fill:#75777F;" d="M412.529,91.822c-8.284,0-15,6.716-15,15v29.392c0,8.284,6.716,15,15,15s15-6.716,15-15v-29.392  C427.529,98.538,420.813,91.822,412.529,91.822z" data-original="#75777F" class=""/><path style="fill:#4949E7" d="M434.856,81.25h-44.653c-8.284,0-15,6.716-15,15s6.716,15,15,15h44.653c8.284,0,15-6.716,15-15  S443.14,81.25,434.856,81.25z" data-original="#A0E1FF" class="" data-old_color="#A0E1FF"/><path style="fill:#A0A1A8;" d="M265.815,66.475H151.102c-20.595,0-37.351,16.755-37.351,37.351v62.654c0,8.284,6.716,15,15,15  h159.414c8.284,0,15-6.716,15-15v-62.654C303.166,83.23,286.41,66.475,265.815,66.475z" data-original="#A0A1A8"/><path style="fill:#D8D8E5;" d="M208.458,66.475h-57.356c-20.595,0-37.351,16.755-37.351,37.351v62.654c0,8.284,6.716,15,15,15  h79.707V66.475z" data-original="#D8D8E5" class=""/><path style="fill:#F3DC38" d="M467,127.492H45c-24.813,0-45,20.187-45,45v228.033c0,24.813,20.187,45,45,45h422  c24.813,0,45-20.187,45-45V172.492C512,147.679,491.813,127.492,467,127.492z" data-original="#79BBFA" class="active-path" data-old_color="#79BBFA"/><path style="fill:#FFEEB6" d="M256,127.492H45c-24.813,0-45,20.187-45,45v228.033c0,24.813,20.187,45,45,45h211V127.492z" data-original="#96E8FF" class="" data-old_color="#96E8FF"/><path style="fill:#373737;" d="M256,181.583c-57.855,0-104.925,47.069-104.925,104.925S198.145,391.433,256,391.433  s104.925-47.069,104.925-104.925S313.855,181.583,256,181.583z" data-original="#373737" class=""/><path style="fill:#75777F;" d="M256,181.583c-57.855,0-104.925,47.069-104.925,104.925S198.145,391.433,256,391.433V181.583z" data-original="#75777F" class=""/><path style="fill:#BEC0CC;" d="M256,239.343c-26.007,0-47.166,21.158-47.166,47.166s21.158,47.166,47.166,47.166  s47.166-21.159,47.166-47.166S282.007,239.343,256,239.343z" data-original="#BEC0CC" class=""/><g>
	<path style="fill:#F1F1F1;" d="M256,239.343c-26.007,0-47.166,21.158-47.166,47.166s21.158,47.166,47.166,47.166V239.343z" data-original="#F1F1F1" class=""/>
	<path style="fill:#F1F1F1;" d="M438.791,201.657h-17.968c-8.284,0-15,6.716-15,15s6.716,15,15,15h17.968c8.284,0,15-6.716,15-15   S447.075,201.657,438.791,201.657z" data-original="#F1F1F1" class=""/>
</g></g> </svg>
