<?xml version="1.0"?>
<svg xmlns="http://www.w3.org/2000/svg" id="gallery" enable-background="new 0 0 300 300" height="512px" viewBox="0 0 300 300" width="512px" class=""><g><g><circle cx="182" cy="124" fill="#d2ddff" r="86" data-original="#D2DDFF" class=""/><g><path d="m36 66h64v56h-64z" fill="#fff" data-original="#FFF" class=""/><path d="m100 126h-64c-2.211 0-4-1.791-4-4v-56c0-2.209 1.789-4 4-4h64c2.211 0 4 1.791 4 4v56c0 2.209-1.789 4-4 4zm-60-8h56v-48h-56z" fill="#4c241d" data-original="#4C241D" class=""/></g><g><path d="m36 122h64v12h-64z" fill="#6b4f5b" data-original="#6B4F5B" class=""/><path d="m100 138h-64c-2.211 0-4-1.791-4-4v-12c0-2.209 1.789-4 4-4h64c2.211 0 4 1.791 4 4v12c0 2.209-1.789 4-4 4zm-60-8h56v-4h-56z" fill="#4c241d" data-original="#4C241D" class=""/></g><g><path d="m36 122 21.333-20 21.334 8 21.168-24.318v36.318z" fill="#a9ba5a" data-original="#A9BA5A" class="active-path" style="fill:#FFD7A8" data-old_color="#a9ba5a"/><path d="m99.836 126h-63.836c-1.641 0-3.117-1.002-3.719-2.529-.605-1.525-.215-3.266.984-4.389l21.332-20c1.109-1.041 2.719-1.355 4.141-.828l18.734 7.025 19.348-22.224c1.094-1.256 2.855-1.703 4.418-1.119s2.598 2.078 2.598 3.746v36.318c0 2.209-1.789 4-4 4zm-53.723-8h49.723v-21.631l-14.152 16.258c-1.098 1.26-2.852 1.703-4.422 1.119l-19.008-7.129z" fill="#4c241d" data-original="#4C241D" class=""/></g><g><circle cx="54" cy="84" fill="#ffce56" r="6" data-original="#FFCE56" class="" data-old_color="#ffce56" style="fill:#FFD7A8"/><path d="m54 94c-5.516 0-10-4.486-10-10s4.484-10 10-10 10 4.486 10 10-4.484 10-10 10zm0-12c-1.102 0-2 .896-2 2s.898 2 2 2 2-.896 2-2-.898-2-2-2z" fill="#4c241d" data-original="#4C241D" class=""/></g><g><path d="m116 66h64v56h-64z" fill="#fff" data-original="#FFF" class=""/><path d="m180 126h-64c-2.211 0-4-1.791-4-4v-56c0-2.209 1.789-4 4-4h64c2.211 0 4 1.791 4 4v56c0 2.209-1.789 4-4 4zm-60-8h56v-48h-56z" fill="#4c241d" data-original="#4C241D" class=""/></g><g><path d="m116 122h64v12h-64z" fill="#6b4f5b" data-original="#6B4F5B" class=""/><path d="m180 138h-64c-2.211 0-4-1.791-4-4v-12c0-2.209 1.789-4 4-4h64c2.211 0 4 1.791 4 4v12c0 2.209-1.789 4-4 4zm-60-8h56v-4h-56z" fill="#4c241d" data-original="#4C241D" class=""/></g><g><path d="m116 122 21.333-20 21.334 8 21.168-24.318v36.318z" fill="#a9ba5a" data-original="#A9BA5A" class="active-path" style="fill:#FFD7A8" data-old_color="#a9ba5a"/><path d="m179.836 126h-63.836c-1.641 0-3.117-1.002-3.719-2.529-.605-1.525-.215-3.266.984-4.389l21.332-20c1.109-1.041 2.723-1.355 4.141-.828l18.734 7.025 19.348-22.225c1.094-1.256 2.855-1.703 4.418-1.119s2.598 2.078 2.598 3.746v36.319c0 2.209-1.789 4-4 4zm-53.723-8h49.723v-21.631l-14.152 16.258c-1.098 1.26-2.859 1.703-4.422 1.119l-19.008-7.129z" fill="#4c241d" data-original="#4C241D" class=""/></g><g><circle cx="134" cy="84" fill="#ffce56" r="6" data-original="#FFCE56" class="" data-old_color="#ffce56" style="fill:#FFD7A8"/><path d="m134 94c-5.516 0-10-4.486-10-10s4.484-10 10-10 10 4.486 10 10-4.484 10-10 10zm0-12c-1.102 0-2 .896-2 2s.898 2 2 2 2-.896 2-2-.898-2-2-2z" fill="#4c241d" data-original="#4C241D" class=""/></g><g><path d="m196 66h64v56h-64z" fill="#fff" data-original="#FFF" class=""/><path d="m260 126h-64c-2.211 0-4-1.791-4-4v-56c0-2.209 1.789-4 4-4h64c2.211 0 4 1.791 4 4v56c0 2.209-1.789 4-4 4zm-60-8h56v-48h-56z" fill="#4c241d" data-original="#4C241D" class=""/></g><g><path d="m196 122h64v12h-64z" fill="#6b4f5b" data-original="#6B4F5B" class=""/><path d="m260 138h-64c-2.211 0-4-1.791-4-4v-12c0-2.209 1.789-4 4-4h64c2.211 0 4 1.791 4 4v12c0 2.209-1.789 4-4 4zm-60-8h56v-4h-56z" fill="#4c241d" data-original="#4C241D" class=""/></g><g><path d="m196 122 21.333-20 21.334 8 21.168-24.318v36.318z" fill="#a9ba5a" data-original="#A9BA5A" class="active-path" style="fill:#FFD7A8" data-old_color="#a9ba5a"/><path d="m259.836 126h-63.836c-1.641 0-3.117-1.002-3.719-2.529-.605-1.525-.215-3.266.984-4.389l21.332-20c1.113-1.041 2.719-1.355 4.141-.828l18.734 7.025 19.348-22.225c1.094-1.256 2.859-1.703 4.418-1.119 1.562.584 2.598 2.078 2.598 3.746v36.319c0 2.209-1.789 4-4 4zm-53.723-8h49.723v-21.631l-14.152 16.258c-1.094 1.26-2.855 1.703-4.422 1.119l-19.008-7.129z" fill="#4c241d" data-original="#4C241D" class=""/></g><g><circle cx="214" cy="84" fill="#ffce56" r="6" data-original="#FFCE56" class="" data-old_color="#ffce56" style="fill:#FFD7A8"/><path d="m214 94c-5.516 0-10-4.486-10-10s4.484-10 10-10 10 4.486 10 10-4.484 10-10 10zm0-12c-1.102 0-2 .896-2 2s.898 2 2 2 2-.896 2-2-.898-2-2-2z" fill="#4c241d" data-original="#4C241D" class=""/></g><g><path d="m36 150h64v56h-64z" fill="#fff" data-original="#FFF" class=""/><path d="m100 210h-64c-2.211 0-4-1.791-4-4v-56c0-2.209 1.789-4 4-4h64c2.211 0 4 1.791 4 4v56c0 2.209-1.789 4-4 4zm-60-8h56v-48h-56z" fill="#4c241d" data-original="#4C241D" class=""/></g><g><path d="m36 206h64v12h-64z" fill="#6b4f5b" data-original="#6B4F5B" class=""/><path d="m100 222h-64c-2.211 0-4-1.791-4-4v-12c0-2.209 1.789-4 4-4h64c2.211 0 4 1.791 4 4v12c0 2.209-1.789 4-4 4zm-60-8h56v-4h-56z" fill="#4c241d" data-original="#4C241D" class=""/></g><g><path d="m36 206 21.333-20 21.334 8 21.168-24.318v36.318z" fill="#a9ba5a" data-original="#A9BA5A" class="active-path" style="fill:#FFD7A8" data-old_color="#a9ba5a"/><path d="m99.836 210h-63.836c-1.641 0-3.117-1.002-3.719-2.529-.605-1.525-.215-3.266.984-4.389l21.332-20c1.109-1.039 2.719-1.354 4.141-.828l18.734 7.025 19.348-22.225c1.094-1.256 2.855-1.709 4.418-1.119 1.562.584 2.598 2.078 2.598 3.746v36.319c0 2.209-1.789 4-4 4zm-53.723-8h49.723v-21.631l-14.152 16.258c-1.098 1.26-2.852 1.705-4.422 1.119l-19.008-7.129z" fill="#4c241d" data-original="#4C241D" class=""/></g><g><circle cx="54" cy="168" fill="#ffce56" r="6" data-original="#FFCE56" class="" data-old_color="#ffce56" style="fill:#FFD7A8"/><path d="m54 178c-5.516 0-10-4.486-10-10s4.484-10 10-10 10 4.486 10 10-4.484 10-10 10zm0-12c-1.102 0-2 .896-2 2s.898 2 2 2 2-.896 2-2-.898-2-2-2z" fill="#4c241d" data-original="#4C241D" class=""/></g><g><path d="m116 150h64v68h-64z" fill="#fff" data-original="#FFF" class=""/><path d="m180 222h-64c-2.211 0-4-1.791-4-4v-68c0-2.209 1.789-4 4-4h64c2.211 0 4 1.791 4 4v68c0 2.209-1.789 4-4 4zm-60-8h56v-60h-56z" fill="#4c241d" data-original="#4C241D" class=""/></g><g><path d="m196 150h64v56h-64z" fill="#fff" data-original="#FFF" class=""/><path d="m260 210h-64c-2.211 0-4-1.791-4-4v-56c0-2.209 1.789-4 4-4h64c2.211 0 4 1.791 4 4v56c0 2.209-1.789 4-4 4zm-60-8h56v-48h-56z" fill="#4c241d" data-original="#4C241D" class=""/></g><g><path d="m196 206h64v12h-64z" fill="#6b4f5b" data-original="#6B4F5B" class=""/><path d="m260 222h-64c-2.211 0-4-1.791-4-4v-12c0-2.209 1.789-4 4-4h64c2.211 0 4 1.791 4 4v12c0 2.209-1.789 4-4 4zm-60-8h56v-4h-56z" fill="#4c241d" data-original="#4C241D" class=""/></g><g><path d="m196 206 21.333-20 21.334 8 21.168-24.318v36.318z" fill="#a9ba5a" data-original="#A9BA5A" class="active-path" style="fill:#FFD7A8" data-old_color="#a9ba5a"/><path d="m259.836 210h-63.836c-1.641 0-3.117-1.002-3.719-2.529-.605-1.525-.215-3.266.984-4.389l21.332-20c1.113-1.039 2.719-1.354 4.141-.828l18.734 7.025 19.348-22.225c1.094-1.256 2.859-1.709 4.418-1.119 1.562.584 2.598 2.078 2.598 3.746v36.319c0 2.209-1.789 4-4 4zm-53.723-8h49.723v-21.631l-14.152 16.258c-1.094 1.26-2.855 1.705-4.422 1.119l-19.008-7.129z" fill="#4c241d" data-original="#4C241D" class=""/></g><g><circle cx="214" cy="168" fill="#ffce56" r="6" data-original="#FFCE56" class="" data-old_color="#ffce56" style="fill:#FFD7A8"/><path d="m214 178c-5.516 0-10-4.486-10-10s4.484-10 10-10 10 4.486 10 10-4.484 10-10 10zm0-12c-1.102 0-2 .896-2 2s.898 2 2 2 2-.896 2-2-.898-2-2-2z" fill="#4c241d" data-original="#4C241D" class=""/></g><g><path d="m150.907 169.058 2.219 6.83c.409 1.259 1.583 2.112 2.907 2.112h7.181c2.961 0 4.192 3.789 1.797 5.529l-5.81 4.221c-1.071.778-1.52 2.158-1.11 3.417l2.219 6.83c.915 2.816-2.308 5.158-4.704 3.417l-5.81-4.221c-1.071-.778-2.522-.778-3.593 0l-5.81 4.221c-2.396 1.74-5.619-.601-4.704-3.417l2.219-6.83c.409-1.259-.039-2.639-1.11-3.417l-5.81-4.221c-2.395-1.74-1.164-5.529 1.797-5.529h7.181c1.324 0 2.498-.853 2.907-2.112l2.219-6.83c.916-2.816 4.9-2.816 5.815 0z" fill="#ffce56" data-original="#FFCE56" class="" data-old_color="#ffce56" style="fill:#FFD7A8"/><path d="m138.598 206.002c-1.457 0-2.91-.451-4.152-1.354-2.48-1.803-3.508-4.975-2.559-7.891l2.008-6.172-5.258-3.82c-2.48-1.803-3.512-4.975-2.562-7.891s3.645-4.875 6.711-4.875h6.496l2.008-6.178c.945-2.916 3.645-4.875 6.711-4.875s5.762 1.959 6.711 4.875l2.008 6.178h6.496c3.066 0 5.762 1.959 6.711 4.875s-.082 6.088-2.562 7.891l-5.258 3.82 2.008 6.176c.949 2.912-.078 6.084-2.559 7.887-2.48 1.801-5.812 1.807-8.301.002l-5.255-3.818-5.254 3.818c-1.242.901-2.695 1.352-4.148 1.352zm-2.91-24.002 3.461 2.514c2.484 1.803 3.516 4.975 2.566 7.893l-1.32 4.064 3.457-2.514c2.484-1.801 5.812-1.801 8.297 0l3.457 2.514-1.32-4.066c-.949-2.916.082-6.088 2.57-7.893l3.457-2.512h-4.281c-3.062 0-5.758-1.957-6.711-4.871l-1.32-4.07-1.32 4.066c-.953 2.918-3.648 4.875-6.711 4.875zm27.527 0h.039zm-16.113-11.707v.006-.004z" fill="#4c241d" data-original="#4C241D" class=""/></g><g fill="#6b4f5b"><path d="m124 238h-84c-2.211 0-4-1.791-4-4s1.789-4 4-4h84c2.211 0 4 1.791 4 4s-1.789 4-4 4z" data-original="#6B4F5B" class=""/><path d="m72 250h-32c-2.211 0-4-1.791-4-4s1.789-4 4-4h32c2.211 0 4 1.791 4 4s-1.789 4-4 4z" data-original="#6B4F5B" class=""/><path d="m144 250h-56c-2.211 0-4-1.791-4-4s1.789-4 4-4h56c2.211 0 4 1.791 4 4s-1.789 4-4 4z" data-original="#6B4F5B" class=""/><path d="m108 262h-68c-2.211 0-4-1.791-4-4s1.789-4 4-4h68c2.211 0 4 1.791 4 4s-1.789 4-4 4z" data-original="#6B4F5B" class=""/></g></g></g> </svg>
