<?xml version="1.0"?>
<svg xmlns="http://www.w3.org/2000/svg" xmlns:xlink="http://www.w3.org/1999/xlink" version="1.1" id="Layer_1" x="0px" y="0px" viewBox="0 0 512 512" style="enable-background:new 0 0 512 512;" xml:space="preserve" width="512px" height="512px" class=""><g><rect x="38.536" y="91.406" style="fill:#93E5F9;" width="432.876" height="329.19" data-original="#93E5F9" class=""/><path style="fill:#6EDCF9;" d="M258.922,91.406H38.536v329.188h276.072C208.138,343.623,185.133,196.665,258.922,91.406z" data-original="#6EDCF9" class=""/><path style="fill:#5CCC2E;" d="M475.306,274.329l-86.257-57.253c-2.492-1.656-5.762-1.543-8.135,0.28l-95.677,73.489l-64.046-39.518  c-2.331-1.439-5.287-1.385-7.565,0.137L34.62,371.081c-1.944,1.299-3.11,3.482-3.11,5.82v42.223c0,3.866,3.133,7,7,7h432.924  c3.867,0,7-3.134,7-7V280.161C478.435,277.815,477.262,275.625,475.306,274.329z" data-original="#5CCC2E" class=""/><circle style="fill:#FFEA00" cx="133.708" cy="187.661" r="40.092" data-original="#FF9429" class="" data-old_color="#FF9429"/><path style="fill:#F4CD16" d="M113.697,187.656c0-18.676,12.769-34.368,30.055-38.824c-25.447-6.558-50.132,12.69-50.132,38.824  c0,26.166,24.712,45.379,50.132,38.826C126.466,222.026,113.697,206.333,113.697,187.656z" data-original="#EF6D14" class="" data-old_color="#EF6D14"/><path style="fill:#48A01A;" d="M218.178,250.326c-3.66-0.347,8.471-7.564-183.558,120.755c-1.944,1.299-3.11,3.482-3.11,5.82v42.223  c0,3.866,3.133,7,7,7h291.544C265.743,392.926,221.105,326.973,218.178,250.326z" data-original="#48A01A" class=""/><path style="fill:#FFD7A8" d="M469.599,59.344c-15.509,0-409.882,0-429.254,0c-18.678,0-33.872,15.194-33.872,33.871v325.571  c0,18.677,15.194,33.871,33.872,33.871h429.254c18.677,0,33.872-15.194,33.872-33.871V93.215  C503.471,74.538,488.277,59.344,469.599,59.344z M468.908,418.093H41.036V93.906h427.872V418.093z" data-original="#CC7954" class="active-path" data-old_color="#CC7954"/><g>
	<path style="fill:#B25F42;" d="M25.142,418.785V93.215c0-18.677,15.194-33.871,33.872-33.871H40.345   c-18.678,0-33.872,15.194-33.872,33.871v325.571c0,18.677,15.194,33.871,33.872,33.871h18.668   C40.335,452.656,25.142,437.462,25.142,418.785z" data-original="#B25F42" class=""/>
	<path style="fill:#B25F42;" d="M475.576,93.906h-6.667v324.188h6.667c6.627,0,12.001-5.373,12.001-12.001V105.906   C487.577,99.279,482.203,93.906,475.576,93.906z" data-original="#B25F42" class=""/>
</g><g>
	<path style="fill:#231F20;" d="M470.628,51.843h-41.091c-4.143,0-7.5,3.357-7.5,7.5s3.357,7.5,7.5,7.5h41.091   c14.541,0,26.372,11.83,26.372,26.371v325.571c0,14.541-11.831,26.371-26.372,26.371H41.373c-14.541,0-26.372-11.83-26.372-26.371   V93.215c0-14.541,11.831-26.371,26.372-26.371h359.162c4.143,0,7.5-3.357,7.5-7.5s-3.357-7.5-7.5-7.5H41.373   C18.56,51.843,0,70.402,0,93.215v325.571c0,22.812,18.56,41.371,41.373,41.371h429.255c22.812,0,41.372-18.56,41.372-41.371V93.215   C512,70.402,493.44,51.843,470.628,51.843z" data-original="#231F20" class=""/>
	<path style="fill:#231F20;" d="M34.564,93.906v273.482v50.706c0,4.143,3.357,7.5,7.5,7.5h427.872c4.143,0,7.5-3.357,7.5-7.5   c0-9.602,0-314.611,0-324.188c0-4.143-3.358-7.5-7.5-7.5H42.065C37.921,86.405,34.564,89.763,34.564,93.906z M462.435,410.593   H49.565v-39.196l170.592-113.996c118.839,73.327,110.863,68.966,113.89,68.966c7.529,0,10.364-9.926,3.945-13.885l-39.827-24.574   l82.522-63.386l81.747,54.259v131.812H462.435z M462.435,101.406v159.37l-77.918-51.717c-2.672-1.772-6.175-1.65-8.717,0.301   l-91.292,70.122c-65.003-40.108-61.56-38.502-64.548-38.486c-3.714,0.018,9.978-8.173-170.398,112.36V101.406H462.435z" data-original="#231F20" class=""/>
	<path style="fill:#231F20;" d="M134.74,235.25c26.243,0,47.594-21.351,47.594-47.595c0-26.243-21.351-47.593-47.594-47.593   s-47.594,21.35-47.594,47.593C87.146,213.9,108.497,235.25,134.74,235.25z M134.74,155.064c17.972,0,32.593,14.621,32.593,32.592   c0,17.973-14.621,32.594-32.593,32.594s-32.593-14.621-32.593-32.594C102.147,169.685,116.768,155.064,134.74,155.064z" data-original="#231F20" class=""/>
</g></g> </svg>
