<svg xmlns="http://www.w3.org/2000/svg" width="48" height="48" viewBox="0 0 48 48">
  <path id="Shape" d="M24,48A24.006,24.006,0,0,1,14.662,1.887,24,24,0,0,1,33.338,46.112,23.824,23.824,0,0,1,24,48ZM14.772,28l-5.5,9.524A19.95,19.95,0,0,0,24,44h.008Zm8.082,6,5.5,9.524A20.067,20.067,0,0,0,41.32,34ZM4.918,18A20.019,20.019,0,0,0,6.686,34.01L12.464,24l0-.008,3.463-6Zm36.407-3.994L32.09,30H43.082a20.025,20.025,0,0,0-1.758-15.994ZM20.548,18l-3.466,6,3.462,6h6.927l3.462-6L27.47,18ZM24.006,4l9.239,16,5.494-9.516A19.952,19.952,0,0,0,24.006,4Zm-4.346.474h0A20.055,20.055,0,0,0,6.68,14H25.16l-5.5-9.527Z" fill="#333"/>
</svg>
